HIERARCHY
ROOT joint_Root
{
	OFFSET 0.0 0.0 0.0
	CHANNELS 6 Xposition Yposition Zposition Zrotation Xrotation Yrotation 
	JOINT Hips
	{
		OFFSET -17.1583 93.1646 452.98
		CHANNELS 6 Xposition Yposition Zposition Zrotation Xrotation Yrotation 
		JOINT Spine
		{
			OFFSET 15.7357 0.0 0.0
			CHANNELS 6 Xposition Yposition Zposition Zrotation Xrotation Yrotation 
			JOINT Chest
			{
				OFFSET 8.98455 -0.406207 0.0
				CHANNELS 6 Xposition Yposition Zposition Zrotation Xrotation Yrotation 
				JOINT Neck
				{
					OFFSET 16.3773 0.0 0.0
					CHANNELS 6 Xposition Yposition Zposition Zrotation Xrotation Yrotation 
					JOINT Head
					{
						OFFSET 6.45672 0.0 0.0
						CHANNELS 6 Xposition Yposition Zposition Zrotation Xrotation Yrotation 
						End Site
						{
							OFFSET 0.0 0.0 0.0
						}
					}
				}
				JOINT Shoulder_L
				{
					OFFSET 12.9942 -0.242716 4.98039
					CHANNELS 6 Xposition Yposition Zposition Zrotation Xrotation Yrotation 
					JOINT UpperArm_L
					{
						OFFSET 5.34809 0.0 0.0
						CHANNELS 6 Xposition Yposition Zposition Zrotation Xrotation Yrotation 
						JOINT LowerArm_L
						{
							OFFSET 24.3286 1.87007e-05 0.0
							CHANNELS 6 Xposition Yposition Zposition Zrotation Xrotation Yrotation 
							JOINT Hand_L
							{
								OFFSET 22.2916 0.0 0.0
								CHANNELS 6 Xposition Yposition Zposition Zrotation Xrotation Yrotation 
								End Site
								{
									OFFSET 0.0 0.0 0.0
								}
							}
						}
					}
				}
				JOINT Shoulder_R
				{
					OFFSET 12.9945 -0.242716 -4.98039
					CHANNELS 6 Xposition Yposition Zposition Zrotation Xrotation Yrotation 
					JOINT UpperArm_R
					{
						OFFSET -5.34813 0.0 0.0
						CHANNELS 6 Xposition Yposition Zposition Zrotation Xrotation Yrotation 
						JOINT LowerArm_R
						{
							OFFSET -24.3289 0.000322201 0.0
							CHANNELS 6 Xposition Yposition Zposition Zrotation Xrotation Yrotation 
							JOINT Hand_R
							{
								OFFSET -22.2915 -0.000108084 0.0
								CHANNELS 6 Xposition Yposition Zposition Zrotation Xrotation Yrotation 
								End Site
								{
									OFFSET 0.0 0.0 0.0
								}
							}
						}
					}
				}
			}
		}
		JOINT UpperLeg_L
		{
			OFFSET -2.19248 -6.46944 0.0
			CHANNELS 6 Xposition Yposition Zposition Zrotation Xrotation Yrotation 
			JOINT LowerLeg_L
			{
				OFFSET 39.0811 0.0 -1.23785e-05
				CHANNELS 6 Xposition Yposition Zposition Zrotation Xrotation Yrotation 
				JOINT Foot_L
				{
					OFFSET 40.9854 0.0 -1.26872e-05
					CHANNELS 6 Xposition Yposition Zposition Zrotation Xrotation Yrotation 
					JOINT Toes_L
					{
						OFFSET 11.7543 0.0 0.0
						CHANNELS 6 Xposition Yposition Zposition Zrotation Xrotation Yrotation 
						End Site
						{
							OFFSET 0.0 0.0 0.0
						}
					}
				}
			}
		}
		JOINT UpperLeg_R
		{
			OFFSET -2.19251 6.46944 0.0
			CHANNELS 6 Xposition Yposition Zposition Zrotation Xrotation Yrotation 
			JOINT LowerLeg_R
			{
				OFFSET -39.0811 -0.00228153 -0.0401928
				CHANNELS 6 Xposition Yposition Zposition Zrotation Xrotation Yrotation 
				JOINT Foot_R
				{
					OFFSET -40.9854 0.0 0.0
					CHANNELS 6 Xposition Yposition Zposition Zrotation Xrotation Yrotation 
					JOINT Toes_R
					{
						OFFSET -11.7543 0.0 0.0
						CHANNELS 6 Xposition Yposition Zposition Zrotation Xrotation Yrotation 
						End Site
						{
							OFFSET 0.0 0.0 0.0
						}
					}
				}
			}
		}
	}
}
MOTION
Frames:	4
Frame Time:	0.0333333
0.000000 0.000000 0.000000 0.000000 0.000000 -0.000000 -0.670711 83.443300 -60.782400 83.200200 0.240902 -6.179250 15.735700 0.000005 -0.000001 83.507400 82.662200 -79.115900 8.984550 -0.406207 -0.000000 6.897630 -1.686620 8.875830 16.377300 -0.000001 -0.000001 -8.683300 4.023620 -3.289980 6.456720 -0.000001 -0.000000 -15.205700 5.624790 -5.657940 12.994200 -0.242716 4.980390 -92.952500 9.388320 -72.454200 5.348090 -0.000007 -0.000001 -62.470000 11.514500 5.225900 24.328600 0.000019 0.000005 21.111600 29.387300 -38.204400 22.291600 -0.000001 0.000005 -1.421120 5.180130 3.206550 12.994500 -0.242716 -4.980390 88.972500 3.261120 -72.500100 -5.348130 -0.000001 -0.000004 -54.443900 -5.515580 2.234220 -24.328900 0.000322 -0.000009 3.151690 14.046400 -12.849600 -22.291500 -0.000108 -0.000004 -0.917127 5.082690 5.462770 -2.192480 -6.469440 -0.000000 -171.099000 -6.187390 -36.375100 39.081100 -0.000007 -0.000012 0.077352 0.038351 116.363000 40.985400 -0.000006 -0.000013 -4.974680 -0.226268 -37.816700 11.754300 -0.000000 0.000003 0.002471 0.076997 -13.454100 -2.192510 6.469440 -0.000001 -168.177000 5.753360 156.142000 -39.081100 -0.002282 -0.040193 -0.018964 0.015133 55.703100 -40.985400 0.000008 0.000006 -2.789060 -0.854496 -90.523900 -11.754300 -0.000006 -0.000006 -0.001094 0.184402 -9.092980
0.000000 0.000000 0.000000 0.000000 0.000000 -0.000000 -0.051137 85.273900 -50.833200 86.262300 -0.916520 -7.505150 15.735700 0.000005 -0.000001 91.764900 83.410600 -88.844600 8.984550 -0.406207 -0.000000 5.404440 0.344976 5.817610 16.377300 -0.000001 -0.000001 -8.089920 3.400400 -2.335080 6.456720 -0.000001 -0.000000 -14.559400 4.326940 -4.563460 12.994200 -0.242716 4.980390 -93.156800 9.715320 -71.901600 5.348090 -0.000007 -0.000001 -59.705900 1.024030 6.826540 24.328600 0.000019 0.000005 11.148000 38.219800 -17.677300 22.291600 -0.000001 0.000005 -0.951236 5.009770 7.099410 12.994500 -0.242716 -4.980390 88.681100 4.301880 -72.937200 -5.348130 -0.000001 -0.000004 -55.039400 8.625990 -1.736400 -24.328900 0.000322 -0.000009 0.456839 0.847812 -29.186500 -22.291500 -0.000108 -0.000004 2.601280 5.316660 -0.290797 -2.192480 -6.469440 -0.000000 -176.376000 -5.126660 -46.095000 39.081100 -0.000007 -0.000012 -0.104865 -0.045092 113.274000 40.985400 -0.000006 -0.000013 -4.970200 -0.817838 -47.219400 11.754300 -0.000000 0.000003 0.002444 0.072718 -13.627500 -2.192510 6.469440 -0.000001 -173.553000 6.931440 165.471000 -39.081100 -0.002282 -0.040193 -0.057734 0.054499 48.215700 -40.985400 0.000008 0.000006 -4.860610 3.367700 -87.101900 -11.754300 -0.000006 -0.000006 0.002393 0.067367 -13.840900
0.000000 0.000000 0.000000 0.000000 0.000000 -0.000000 1.070940 88.304600 -40.590500 90.193000 -4.088460 -10.407700 15.735700 0.000005 -0.000001 104.642000 84.565500 -103.731000 8.984550 -0.406207 -0.000000 2.731790 2.705010 1.755790 16.377300 -0.000001 -0.000001 -7.704890 3.274350 -1.488880 6.456720 -0.000001 -0.000000 -13.219100 3.188590 -4.125930 12.994200 -0.242716 4.980390 -93.039600 8.862170 -70.981500 5.348090 -0.000007 -0.000001 -53.335800 -11.899800 11.185600 24.328600 0.000019 0.000005 2.189530 40.766100 -3.349490 22.291600 -0.000001 0.000005 1.649960 4.516040 16.268700 12.994500 -0.242716 -4.980390 89.042700 3.382870 -74.193400 -5.348130 -0.000001 -0.000004 -56.983500 12.993400 -4.273440 -24.328900 0.000322 -0.000009 -1.880650 -1.752740 -46.967100 -22.291500 -0.000108 -0.000004 9.855740 5.497260 -6.328370 -2.192480 -6.469440 -0.000000 177.191000 -3.854880 -52.915500 39.081100 -0.000007 -0.000012 -0.140100 -0.031509 102.679000 40.985400 -0.000006 -0.000013 -4.945110 -3.065070 -56.226400 11.754300 -0.000000 0.000003 0.002460 0.075021 -13.534200 -2.192510 6.469440 -0.000001 179.120000 8.090780 173.270000 -39.081100 -0.002282 -0.040193 -0.055572 0.077822 37.101000 -40.985400 0.000008 0.000006 -6.874760 7.933710 -74.522500 -11.754300 -0.000006 -0.000006 -0.016290 -0.145792 -22.523500
0.000000 0.000000 0.000000 0.000000 0.000000 -0.000000 2.100440 91.515300 -30.460000 93.729500 -7.222570 -14.302700 15.735700 0.000005 -0.000001 126.594000 85.638300 -127.602000 8.984550 -0.406207 -0.000000 -0.714206 5.273920 -1.983310 16.377300 -0.000001 -0.000001 -7.213080 2.912640 -1.096140 6.456720 -0.000001 -0.000000 -11.696100 1.534610 -3.589160 12.994200 -0.242716 4.980390 -92.317000 6.670970 -70.796200 5.348090 -0.000007 -0.000001 -46.962700 -17.512400 17.736600 24.328600 0.000019 0.000005 0.000168 39.128700 -0.000000 22.291600 -0.000001 0.000005 4.572770 3.712790 28.151600 12.994500 -0.242716 -4.980390 89.734500 1.053910 -75.874000 -5.348130 -0.000001 -0.000004 -61.758300 12.611800 -5.608480 -24.328900 0.000322 -0.000009 -4.772740 -2.858740 -59.110100 -22.291500 -0.000108 -0.000004 13.200000 5.665450 -16.445500 -2.192480 -6.469440 -0.000000 172.870000 -1.448730 -57.749900 39.081100 -0.000007 -0.000012 -0.069260 0.003608 87.024600 40.985400 -0.000006 -0.000013 -4.662880 -5.686990 -62.895700 11.754300 -0.000000 0.000003 0.002470 0.076813 -13.461500 -2.192510 6.469440 -0.000001 173.009000 9.473480 178.002000 -39.081100 -0.002282 -0.040193 0.004313 -0.002111 25.388600 -40.985400 0.000008 0.000006 -6.277030 9.507250 -54.981300 -11.754300 -0.000006 -0.000006 -0.071265 -0.366762 -31.764700
